<?xml version="1.0" encoding="UTF-8"?>
<!DOCTYPE svg PUBLIC "-//W3C//DTD SVG 1.1//EN" "http://www.w3.org/Graphics/SVG/1.1/DTD/svg11.dtd">
<!-- Creator: CorelDRAW 2019 (64-Bit) -->
<svg xmlns="http://www.w3.org/2000/svg" xml:space="preserve" width="98.3884mm" height="155.812mm" version="1.1" style="shape-rendering:geometricPrecision; text-rendering:geometricPrecision; image-rendering:optimizeQuality; fill-rule:evenodd; clip-rule:evenodd"
viewBox="0 0 8482.47 13433.21"
 xmlns:xlink="http://www.w3.org/1999/xlink"
 xmlns:xodm="http://www.corel.com/coreldraw/odm/2003">
 <defs>
  <style type="text/css">
   <![CDATA[
    .str0 {stroke:#5B5B5B;stroke-width:17.24;stroke-miterlimit:22.9256}
    .str1 {stroke:#EF7F1A;stroke-width:17.24;stroke-miterlimit:22.9256}
    .fil4 {fill:#FEFEFE}
    .fil3 {fill:#EBECEC}
    .fil5 {fill:#D9DADA}
    .fil6 {fill:#2B2A29}
    .fil7 {fill:#E31E24}
    .fil1 {fill:#00A0E3}
    .fil2 {fill:#009846}
    .fil0 {fill:#C5C6C6;fill-rule:nonzero}
   ]]>
  </style>
 </defs>
 <g id="Слой_x0020_1">
  <metadata id="CorelCorpID_0Corel-Layer"/>
  <path class="fil0" d="M6593.68 5573.85l-46.25 -14.6 -94.91 -141.18 46.24 -31.63 126.58 94.92 -31.66 92.49zm-1550.03 1442.38c-1.51,-2.5 -2.97,-4.58 -4.35,-6.3 6.26,-23.09 20.04,-78.39 52.84,9.68 6.13,16.48 -28.24,0.97 -48.5,-3.38zm-1122.57 3964.62c90.43,-144.7 -24.27,-32.8 89.5,-100.14 57.07,-33.78 -64.04,-10.75 51.57,-69.64 41.02,-20.89 -191.27,-96.21 -190.24,-83.08 2.35,29.69 -98.32,-8.76 -65.01,-65.02 15.92,-26.91 -66.1,-107.04 -70.64,-5.02 -0.4,-0.43 -75.05,-141.36 -75.05,-21.27 -54.77,0 -53.16,145.42 -14.04,128.23 73.92,-32.49 -74.7,106.79 55.58,74.85 82.7,-20.27 -71.23,89.15 63.21,56.19 49.96,-12.25 -12.63,53.79 43.35,63.21 4.79,0.8 75.81,130.22 111.78,21.67zm-2096.54 -73.75c6.34,-13.44 109.85,96.21 43.85,-36.83 -22.37,-45.09 -99.24,89.33 -69.03,-156.32 16.28,-132.31 -45.72,-47.7 -151.5,-142.87 -22.75,-20.48 226.59,-34.86 -51.57,-46.76 -105.56,-4.51 -245.31,-233.06 -102.95,-29.9 43.4,61.94 224.89,99.96 97.13,129.43 -16.47,39.8 19.78,158.27 -62.01,59.6 -1.02,-1.22 -49.88,-19.17 44.35,75.06 47.44,47.44 -75.11,-34.49 9.43,41.54 31.57,28.39 -40.65,80.28 43.94,72.04 41.84,-4.08 56.69,77.94 63.21,101.14 17.12,0 54.64,-73.56 25.68,-88.29 -45.66,-23.24 57.15,-26.04 72.04,38.52 22.75,9.41 47.48,-78.43 37.43,-16.35zm1623.2 -200.28c21.96,0 39.75,17.8 39.75,39.76 0,21.96 -17.79,39.76 -39.75,39.76 -21.96,0 -39.76,-17.8 -39.76,-39.76 0,-21.96 17.8,-39.76 39.76,-39.76zm-802.47 1246.34c21.96,0 39.76,17.8 39.76,39.76 0,21.96 -17.8,39.76 -39.76,39.76 -21.96,0 -39.75,-17.8 -39.75,-39.76 0,-21.96 17.79,-39.76 39.75,-39.76zm-8.27 -96.25c21.96,0 39.76,17.8 39.76,39.76 0,21.96 -17.8,39.75 -39.76,39.75 -21.95,0 -39.75,-17.79 -39.75,-39.75 0,-21.96 17.8,-39.76 39.75,-39.76zm-1474.8 -645.53c21.95,0 39.75,17.8 39.75,39.76 0,21.96 -17.8,39.75 -39.75,39.75 -21.96,0 -39.76,-17.79 -39.76,-39.75 0,-21.96 17.8,-39.76 39.76,-39.76zm511.34 -226.77c21.96,0 39.76,17.79 39.76,39.75 0,21.96 -17.8,39.76 -39.76,39.76 -21.96,0 -39.75,-17.8 -39.75,-39.76 0,-21.96 17.79,-39.75 39.75,-39.75zm-111 46.81c21.96,0 39.76,17.8 39.76,39.76 0,21.96 -17.8,39.76 -39.76,39.76 -21.96,0 -39.75,-17.8 -39.75,-39.76 0,-21.96 17.79,-39.76 39.75,-39.76zm163.68 1027.54c-37.27,-35.63 -164.73,-19.43 -103.04,-103.65 125.6,-171.48 366.26,22.66 162.14,-46.75 -16.17,-5.5 -111.29,50.44 -48.56,85.49 18.04,10.07 25.98,99.82 -10.54,64.91zm3599.9 -4467.85c-1.44,-0.47 -2.71,-0.74 -3.79,-0.84 -21.44,-40.95 -118.55,-81.2 -83.01,-177.02 7,-18.87 11.07,-131.42 73.03,28.74 75.94,196.33 12.93,44.8 13.77,149.12zm156.63 -80.97l0 0zm38.36 -128.83c-4.35,-3.3 -7.13,-7.4 -8.53,-10.91 -5.33,-2.66 -12.77,-7.49 -22.47,-15.14 -149.48,-117.87 77.02,159.58 56.13,100.79 -13.91,-39.14 -21.8,-62.45 -25.14,-74.75zm-53.23 -90.02c-1.45,0.72 -2.71,1.51 -3.79,2.34 -1.35,-0.54 -2.75,-1.09 -4.19,-1.65 -0.41,-0.16 -13.78,29.17 -94.25,-43.92 -64.43,-58.51 -21.86,-35.78 21.96,-30.96 0.42,0.04 49.99,47.54 80.27,74.19zm-524.31 -672.54c9.41,25.13 21.47,64.2 36.33,123.41 30.23,120.43 -125.4,-179.45 -98.94,-55.01 3.96,18.61 -16.95,23.45 -36.45,-13.57 -10.5,-19.96 -32.86,-51.54 -40.15,-94.74 -3.84,-22.71 -59.4,-53.69 15.42,-131.01 7.04,-7.28 22.8,3.47 40.88,20.94 6.4,6.17 9.35,23.13 10.04,33.05 3.16,44.92 22.48,77.61 36.95,81.71 8.46,14.1 27.53,30.1 35.92,35.23zm1462.71 -2933.68l46.26 189.85 0 158.21 -94.94 94.92 -31.64 -14.6 -14.6 -126.58 -109.53 -31.64 -94.91 -126.56 14.6 -126.58 126.57 -14.6 77.89 -46.25 80.31 43.83zm172.82 -77.89l63.27 63.28 14.62 77.89 -109.53 -48.67 31.63 -92.5zm-3054.66 -3371.08l31.64 31.64 141.18 0 109.53 46.25 -94.92 0 -94.92 46.25 14.6 63.28 109.54 0 77.88 -46.25 109.54 14.6 63.27 109.54 141.18 46.25 94.91 -94.92 14.61 126.57 94.91 14.6 -31.64 63.29 -109.53 -14.61 -46.25 46.25 126.57 63.28 -14.6 77.89 -158.21 -14.61 -77.89 14.61 -77.89 63.28 172.81 14.6 109.54 -46.25 14.61 63.27 250.69 94.93 31.64 94.92 63.28 -46.25 109.54 0 77.89 63.29 0 94.91 172.8 46.25 158.22 109.54 109.53 141.18 109.54 172.8 -63.29 94.92 63.29 94.93 46.24 -14.61 94.93 94.92 -46.25 77.89 77.88 31.64 -31.63 141.17 94.92 109.53 -63.29 46.25 -126.57 -158.22 -77.88 -17.04 0 109.53 63.27 77.89 -14.6 94.92 31.64 158.23 -31.64 31.64 0 94.91 -109.52 126.57 14.6 109.53 -94.92 -31.64 -109.53 77.89 -63.29 77.89 109.54 94.93 -14.61 141.16 63.27 63.29 77.89 14.6 63.28 126.56 -46.24 63.3 46.24 46.25 0 94.92 94.92 17.04 -14.6 94.92 63.27 46.26 -94.91 109.52 29.88 43.27c-19.17,10.02 -36.15,18.62 -45.5,25.67 -106.43,80.24 -182.83,49.44 -208.15,67.45 -44.11,31.42 -206.72,78.82 -258.93,59.44 -29.08,-10.79 -109.6,38.3 -192.22,-109.5 -7.68,-13.76 -84.03,-23.94 -103.68,-26.36 -45.49,-5.6 -85.32,-67.7 -133.44,-63.57 -41.85,3.58 -99.44,-41.54 -104.4,-28.18 -0.15,-2.28 -0.57,-4.43 -1.19,-6.47l-1.75 -17.57 1.16 7.22c-1.1,0.86 -2.19,1.68 -3.23,2.5 -26.76,-38.58 -151.87,-33.93 -207.54,-84.14 -21.19,-19.11 -141.45,-41.62 -170.42,-41.62 -24.04,0 -134.61,-13.27 -151.59,-25.36 -127.39,-90.68 -166.23,48.55 -158.32,65.97 23.17,51.08 -0.61,34.35 4.26,59 -10.49,9.97 32.91,67.01 -8.66,102.47 -3.63,3.1 0.17,73.24 -63.57,27.85 -13.03,-9.29 -112.28,-16.04 -174.31,-78.08 -11.29,-11.29 -99.91,-8.01 -103.43,-6.8 -12.03,46.77 46.26,154.09 15.24,188.58 -56.02,62.28 -22.49,-9.85 -41.11,81.47 -29.15,143.02 -26.2,-1.34 -144.31,116.78 -47.31,47.32 -94.51,-11.18 -108.08,71.79 -6.82,41.73 -102.42,31.08 -149.19,35.98 -4.33,-3.34 -10.35,-7.85 -18.57,-14.02 -61.01,-45.88 -27.05,4.81 -52.22,-11.35 -81.46,-52.31 -4.13,24.16 -3.65,24.2 48.33,4.03 54.01,60.18 35.55,48.32 -75.38,-48.43 23.9,45.41 -25.42,23.78l-0.01 0c-5.1,-5.98 -19.15,-12.08 -48.09,-16.98 -40.12,-6.8 -102.22,-1.17 -46.91,-30 50.31,-26.25 11.37,43.83 56.36,-25.12 -9.72,-30.8 -81.72,-34.34 -81.72,-61.17 0,-15.81 -8.3,-35.93 -17.39,-50.21 6.07,-8.54 2.99,-29.11 -24.22,-59.28 -27.57,-30.57 27.29,-30.78 33.4,-1.24 21.29,7.36 0.09,-35.17 42.77,-7.22 0.51,0.34 65.46,15.28 -8.45,-27.85 -16.64,-9.71 -21.83,-49.37 -52.22,-11.35 -3.3,4.11 -45.2,8.47 -19.31,-34.07 4.74,-7.81 -8.05,-43.99 -33.66,-27.11 -20.38,13.44 -16.45,-50.18 -48.56,-54.12 -11.32,-1.41 -46.65,-15.85 -46.67,-22.97 -0.14,-62.29 -10.93,-3.62 -54.13,-70.88 -11.2,-17.44 40.22,-44.54 -64.57,-87.02 -4.54,-1.84 -46.16,19.86 8.71,26.61 27.31,3.36 -5.95,32.51 57.52,47.17 11.42,33.02 -63.58,22.19 -92.34,-69.88 -12.67,-40.56 -81.52,-32.51 -64.64,-83.02 20.65,2.98 34.21,10.96 40.68,-2.1 41.99,-84.63 11.96,-88.46 -25.61,-135.61 -55.97,-70.25 -53.44,4.15 -54.88,-31.91 -4.22,-106.88 -109.48,-60.87 -126.89,-73.26 -77.88,-55.47 -51.34,47.17 -73.27,47.17 -2.86,0 -76.45,-73.83 -98.64,-75.7 -72.01,-5.99 35.83,50.32 -31.91,84.9 -40.18,20.49 -32.35,-74.75 2.9,-79.08 73.38,-9.03 -65.12,-69.45 -95.24,-14.52 -33.51,61.13 -6.4,0.55 -31.67,15.51 -29.15,17.26 -38.06,-27.54 -50.55,-15.75 7.99,36.46 -65.91,-18.96 -66.23,-19.06 -99.66,-31.07 -21.27,25.01 -21.05,25.36 46.68,76.69 -29.32,4.6 -33.82,2.16 -69.67,-37.78 -8.66,-35.34 -1,-30.42 41.81,26.87 -17.37,-60.66 -48.06,-11.6 -21.54,34.43 -42.94,27.51 -41.36,36.98 16.56,99.4 19.42,-57.92 0,37.45 -7.59,37.2 -85.21,17.78 -28.77,38.72 60.7,22.51 21.39,-50.18 95.73,-10.45 76.06,40.64 45.87,22.34 78.33,8.96 70.64,-29.15 60.38,31.18 92.83,49.31 61.18,34.18 37.3,54.81 64.57,69.63 44.43,24.1 -18.53,32.01 -49.32,14.5 -68.77,-39.11 -62.01,0.32 -84.87,-16.66 -64.97,-48.26 -73.64,-28.5 -55.12,-18.16 61.22,34.21 -60.11,33.24 -64.82,24.2 -38.1,-73.03 -28.49,22.12 -50.24,-6.79 -41.62,-55.33 4.35,5.21 -34.98,-13.93 -32.6,-15.85 -4.16,43 -27.18,17.83 -43.97,-48.05 -77.96,-22.39 -55.62,5.79 50.46,63.69 -19.2,1.3 14.75,51.73 29.34,43.57 -147.71,-1.13 -153.51,-4.56 -24.8,-14.67 -57.12,-36.73 -68.63,-67.71 -34.52,-93 -67.35,-60.34 -113.63,-110.98 -87.39,-95.63 -27.94,-15.22 -12.6,13.1 28.75,53 82.3,42.54 84.63,72.02 -40.86,36.62 26.82,36.74 -8.7,46.17 -85.56,22.69 46.79,43.75 31.67,75.43 -17.92,37.52 28.99,-13.26 34.3,-23.46 0.36,-0.69 113.9,46.17 113.9,46.67 -22.28,18.1 -0.46,17.73 20.3,29.99 89.96,53.25 -16.65,-25.94 52.46,6.72 72.2,34.12 -37.74,40.68 -12.6,65.81 39.87,39.87 -27.38,16.71 10.93,53.88 73.51,-27.55 49.15,23.37 7.47,8.95 -12.82,-4.44 -32.89,39.17 -37.47,2.91 -4.47,-35.34 -25.48,-2.33 -30.75,3.9 -41.1,48.56 -11.38,-31.71 -19.06,-30.26 -63.22,11.91 -36.75,19.62 -43.52,51.22 56.28,-31.24 4.34,28.29 4.06,28.36 -111.32,28.74 124.55,3.66 105.68,30.17 -41.21,57.87 24.42,26.11 44.5,10.19 65.09,-51.58 85.22,-1.27 47.62,-47.16 19.85,24.22 -19.67,-27.17 7.25,-26.11 17.21,0.67 -16.5,-56.32 11.6,-58.27 51.81,-3.6 1.59,-31.3 21.06,-48.33 40.26,-35.18 -18.73,-50.03 -8.97,-67.46 13.12,-23.39 -23.7,-11.62 -23.7,-40.62 60.67,0 75.23,-44.31 101.53,-34.06 50.12,19.52 74.26,9.84 60.67,4.31 -56.2,-22.88 19.71,-16.83 25.63,-23.21 40.82,-44.06 39.62,-5.09 95.72,-1.91 93.99,5.33 101.59,87.14 117.53,45.92 3.43,-8.85 -111.64,-142.17 34.07,-71.27 114.44,55.68 26.08,-7.35 72.52,-22.04 12.51,-3.97 11.71,-86.71 44.51,-13.77 13.57,30.17 60.26,87.3 76.58,54.38 42.78,-86.26 30.17,13.43 60.93,0.24 51.37,-22.04 34.45,81.12 67.46,69.38 11.61,-4.12 22.04,-5.05 31.24,-4.54 -20.39,13.31 -49.09,44.12 -34.88,64.06 11.14,15.66 -89.27,-7.16 32.89,115.05 76.75,76.75 23.22,87.5 101.29,107.58 34.65,8.91 54.32,60 130.55,69.39 58.88,7.24 85.98,81.48 119.45,121.8l-0.14 0.28 0.81 0.5c4.15,4.78 8.73,7.59 12.95,8.52 68.08,48.31 -15.62,58.75 33.04,97.34 53.15,42.12 -34.49,54.89 -29.61,67.87 -84.65,34.36 -35.82,0.78 -93.22,-8.61 -49.14,-8.03 -20.86,-20.89 -86.79,-29 -90.27,-11.11 20.51,17.43 -17.42,30.92 -62.94,22.38 -15.45,35.24 0.26,24.95 46.48,-30.44 30.21,15.85 59.92,-1.75 26.05,-15.42 35.87,11.66 79.08,15.25l-26.11 -14.5c35.32,38.62 59.25,-12.42 78.33,-11.6 5.71,0.24 10.44,0.22 14.35,0 5.03,1.9 12.53,3.9 23.11,6.05 24.41,4.98 52.53,6.03 79.33,25.11 6.22,4.43 32.28,-3.16 37.08,-13.64 35.12,-6.3 64.66,5.5 57.66,-28.87 -3.77,-18.46 -1.69,-28.08 1.93,-33.36 46.37,2.47 165.74,4.5 163.67,-48.12 -3.25,-82.49 60.94,15.34 137.34,-86.28 41.22,-54.81 73.29,4.58 118.95,-46.17 15.67,-17.42 -23.52,-87.68 27.76,-118.04 10.23,-6.05 67.88,-58.1 38.96,-87.02 -34.92,-34.91 -29.26,-128.78 36.97,-115.29 0.75,0.16 98.44,72.02 170.9,78.33 0.58,0.05 110.3,92.99 98.9,0.26 -7.65,-62.13 -18.85,-6.36 19.56,-58.77 6.99,-9.56 -8.99,-18.72 -17.26,-38.37 -1,-2.47 -2.08,-5.82 -3.09,-9.59 -1.82,-8.01 -2.16,-17.48 0.28,-28.89 -1.31,-0.36 -2.52,-0.66 -3.6,-0.86 0.33,-1.97 0.89,-3.66 1.69,-4.94 17.23,-26.8 -8.19,-57.95 2.91,-84.87 53.02,-128.53 125.23,-15.85 126.9,-15.25 82.99,29.49 -24.01,-32.62 36.72,22.04 56.82,51.15 63.83,8.61 64.57,8.21 2.42,-1.34 85.33,39.34 101.28,33.82 11.85,-34.27 72.25,10.32 66.48,20.06 -25.73,43.45 156.09,71.91 195.12,51.05 77.14,-41.24 39.62,16.41 84.12,16.41l0.02 -0.2c3.77,1.64 8.54,3.37 14.5,5.26 99.99,31.64 101.77,40.36 188.56,79.58 88.26,39.87 78.62,-2.6 140.24,62.32 118.34,124.67 72.56,82.12 210.78,88.03 43.77,1.87 136.99,-2.01 176.22,-26.86 106.77,-67.66 135.16,-13.7 156.66,-29.02 89.67,-63.87 179.78,-0.44 268.16,48.49l2.52 3.65 77.89 126.59 -73.01 133.89 -109.53 63.29 46.25 46.25 172.82 -46.25 -14.6 109.52 -109.54 31.64 -14.6 31.65 77.89 77.89 63.29 126.58 -126.59 109.53 17.9 17.9c-104.09,44.51 -194.84,96.84 -238.24,145.07 -34.34,38.17 -86.71,3.83 -65.87,88.82 4.41,18.01 -84.07,61.04 -104,138.54 -22.78,88.58 -38.62,-11.6 -12.58,116.2 0.81,3.97 -36.24,258.61 -91.04,263.38 -54.85,4.78 -104.25,79.52 -77.34,108.31 2.83,3.03 13.32,110.17 -20.48,143.96 -39.56,39.56 29.18,51.69 -9.01,116.21 -6.73,11.37 19.21,31.74 -4.32,64.76 -3.08,4.33 14.9,43.06 -32.81,83.77 -10.09,8.6 -4.47,76.18 24.17,94.99 -23.36,4.43 -21.66,-12.9 -57.88,31.54 -47.65,58.45 -6.05,44.28 -16.39,77.39 -12.07,-7.08 -31.2,-18.26 -60.31,-34.42 -7.41,-4.11 42.9,138.54 55.75,138.54 96.77,0 263.24,382.58 165.19,292.12 -8.25,-7.61 -9.18,0.51 -10.21,9.56 -8.81,3.03 -14.9,6.19 -18.81,9.15 -2.72,-2.53 -5.85,-5.83 -9.47,-10.08 -50,-58.61 -54.48,80.36 -83.52,71.31 -19.48,-6.08 7.34,90.84 32.21,150.11 -10.39,12.27 -23.94,34.38 -26.72,34.49 -32.68,1.31 -3.33,27.07 -26.43,33.56 -33.12,9.31 -9.07,14.34 -28.2,22.26 -25.29,10.48 -10.29,34.44 -28.8,42.35 -22.48,9.6 -23.28,19.47 -32.18,25.05 -20.21,12.67 -16.49,22.54 -22.36,26.33 -33.42,21.65 6.62,63.04 8.52,63.06 18.8,0.15 38.33,27.49 40.08,28.19 32.92,13.13 2.22,21.79 13.27,29.6 22.89,16.16 5.97,24.84 7.12,31.18 6.79,37.47 -6.16,47.75 -5.84,57.11 1.54,45.11 -10.51,33.2 -10.79,41.47 -0.91,27.47 -56.58,25.76 -59.69,32.07 -14.49,29.35 -1.76,6.02 -31.25,13.36 -4.85,1.21 -25.64,-1.45 -37.89,-3.41 3.52,-41.15 -49.94,-55.01 -50.47,-49.33 -7.81,82.92 -50.58,-21.54 -85.61,-25.17 7.78,75.21 -0.81,-22.81 -18.38,33.8 -107.5,-12.41 8.4,16.6 -62.91,25.91 -40.44,-65.16 -50.12,-27.64 -39.97,-25.54 0,17.54 5.21,57.24 21.96,60.07 27.82,4.72 -9.85,68.2 -10.12,68.34 -117.68,61.34 27.61,-55.02 -16.16,-55.02 0,-54.69 -4.16,-1.2 -23.07,-20.11 -90.3,-90.3 49.95,86.68 -29.86,-39.23 -43.74,-69.01 -2.76,-140.11 -50.69,-156.55 24.98,72.2 33.11,113.26 -46.75,85.61 -27.22,-131.52 -36.82,16.86 -35.29,-25.16 5.78,-158.18 -18.35,73.39 -69.07,73.39 -8.65,37.48 -93.42,-30.89 -95.36,-9 -3.85,43.55 -28.07,-37.37 -52.92,-9.75 -52.8,58.68 13.95,59.15 30.96,62.67 16.63,48.05 15,-7.72 46.38,25.91 -27.83,-66.8 47.95,7.42 48.24,7.9 25.14,41.71 2.52,16.38 -2.84,13.69 -123.84,-62.18 -67.95,-6.38 -66.25,-9.01 15.07,-23.39 54.75,73.69 52.18,77.72 -28.6,44.97 66.25,69.92 23.44,156.18 -9.41,18.95 -79.66,-29.22 -41.45,9 55.09,55.08 -23.3,20.12 15.92,93.51 11.68,21.86 -11.54,75.61 -9.37,80.56 26.63,60.65 24.44,-29.77 102.88,2.59 107.22,44.23 35.41,36.16 58.97,14.68 47.24,-43.06 116.82,93.6 96.46,14.43 -19.19,-74.64 113.31,36.93 113.74,37.37 31.84,33.56 63.2,-45.64 63.28,-46.01 57.63,-4.94 82.22,86.28 116.58,-12.95 19.66,-56.81 202.85,14.35 207.24,19.42 2.51,2.91 -0.84,-21.67 -12.95,-31.27 -100.84,-79.95 -39.76,-131.62 -147.17,-165.18 -46.16,-14.41 -87.96,-89.88 -97.46,-100.41 -55.09,-61.08 -25.46,-84.43 -17.28,-68.34 23.36,45.9 35.56,11.43 20.48,1.48 -21.04,-13.89 28.84,-59 29.85,-57.99 57.76,58.58 5.07,-2.56 20.11,-25.54 5.59,-8.53 9.12,-16.34 11.04,-23.45 21.67,1.03 56.13,1.47 60.63,-1.09 3.39,-1.92 16.95,-10.64 19.99,-11.1 46.85,-6.94 24.48,-8.66 47.61,-16.22 18.79,-6.15 28.2,-44.35 27.31,-63.26 -0.85,-18.28 3.64,-23.36 3.57,-24.84 -1.54,-32.87 34.83,-7.23 18.32,-36.14 -14.98,-26.23 -1.44,-14.46 -7.22,-28.1 -12.55,-29.58 -67.37,-56.38 -69.6,-59.38 -22,-29.56 -38,-28.47 -16.62,-56.91 8.17,-10.88 62.69,-49.75 63.25,-52.36 12.56,-58.73 39.87,-52.25 49.58,-68.89 9.06,-15.54 34.42,-18.86 39.09,-33.46 7.74,-24.18 11.39,-4.1 15.6,-14.99 14.62,29.8 26.35,39.03 23.89,-5.23 -0.06,-1.09 29.58,-42.67 35.66,-9.37 21.31,116.82 21.61,-24.03 -17.28,-44.29 -17.87,-9.32 -10.67,-117.71 14.04,-158.97 4.86,-0.72 10.98,-3.36 17.1,-8.72 2.54,-2.23 4.03,-4.73 4.76,-7.03 6.8,0.62 14.28,5.86 22.34,17.19 52.45,73.64 -2.03,-29.29 44.66,24.8 0.99,1.15 0.38,49.81 30.89,26.75 0.86,0.83 1.81,1.6 2.88,2.3 6.07,10.49 22.86,29.43 56.9,61.98 79.41,75.94 -45.49,-7.6 39.6,137.8 9.07,15.51 -70.36,42.56 -31.34,78.08 6.58,5.99 60.45,-71.93 60.45,29.86 -54.57,37.34 -119.77,37.37 -38.87,103.26 153.87,125.31 -40.42,54.47 -67.97,90.29 34.13,7.88 108.03,38.26 115.84,32.08 22.82,-18.08 106.13,102.51 111.89,102.51 41.45,0 10.97,-127.55 42.06,-43.55 0.66,1.76 0.77,91.21 5.05,-4.02 0.47,0.54 0.97,1.07 1.46,1.58 8.46,77.02 54.24,23.5 63.32,119.39 1.22,12.87 17.67,6.49 25.91,73.4 3.65,29.67 32.49,118.58 48.23,133.47 53.51,50.61 -48.94,0.93 8.64,60.45 74.4,76.89 -69.69,-15.29 24.05,109.41 24.9,33.12 -28.33,26.8 22.33,38.49 24.01,69.36 -59.62,-28.48 0,102.88 61.48,135.45 18.9,-32.4 69.82,-30.23 40.43,1.73 -6.26,-201.26 -31.71,-112.99 -4.97,17.27 -49.76,10.29 -12.21,-47.87 16.74,-25.93 -84.66,-145.05 -20.48,-162.22 1.39,-0.37 16.01,-134.01 -20.48,-64.76 -17.9,33.99 -81.14,-115.64 -79.2,-176.65 1.91,-59.72 33.65,-18.77 16.17,-65.88 -30.04,-80.92 -101.39,-95.19 5.42,-86.72 9.52,0.76 17.71,1.5 24.79,2.22 0.17,0.92 0.5,1.82 0.97,2.66 -99.59,15.93 91.61,10.94 20.78,0.02 0.15,-0.89 0.11,-1.93 -0.08,-3.04 4.35,-0.59 8.96,-1.21 13.99,-1.84 33.63,-4.25 64.28,60.86 69.07,59.71 60.55,-14.52 41.44,73.29 72.29,18.38 32.36,-57.61 -4.78,94.12 44.66,124.1 10.61,6.44 41.19,196.65 34.17,18.38 -0.08,-1.98 99.4,13.78 99.68,14.07 33.25,33.77 -45.88,15.67 58.96,60.44 5.03,2.15 56.95,98.9 8.64,-2.22 -0.41,-0.86 -154.43,-221.78 -84.14,-192.81 20.14,8.29 33.58,14.63 42.13,19.42 -1.96,1.76 -2.32,3.21 -1.68,4.31 -67.67,-2.66 32.3,20 11.5,2.14 1.25,-0.29 2.38,-0.73 3.24,-1.33 5.21,0.35 10.97,0.79 17.47,1.35 142.86,12.37 22.64,-58.41 198.24,27.02 5.9,2.87 68.31,86.57 43.18,46.01 -36.02,-58.13 71.21,-5.33 -44.29,-81.66 -65.75,-43.46 21.75,-35.55 -55.01,-72.29 -78.59,-37.62 5.98,-96.45 -64.76,-131.01 -12.68,-6.2 -28.56,28.6 -78.09,9.75 -52.5,-19.99 -25.98,101.65 -156.54,29.85 -0.38,-0.21 -104.44,-14.43 -107.94,-11.47 -25.38,21.48 -63.55,-32.88 -84.41,-62l0 0 0 0c-4.92,-6.86 -8.87,-12.3 -11.47,-15.03l-0.03 -0.03c2.14,-4.68 -14.04,-23.5 -45.47,-40.26 -20.76,-11.07 22.7,-7.61 25.3,-15.35 -0.72,0.06 -1.47,0.08 -2.24,0.05 50.45,32.02 -1.13,-43.8 55.4,18.13 34.12,37.38 -22.74,-71.73 21.22,-51.81 28.18,12.77 -4.41,-10.12 60.82,18.74 14.12,6.25 -116.64,-184.48 -165.18,-153.7 -83.6,-35.64 78.2,-67.68 5.06,-84.5 -2.2,-0.51 -35.23,45.39 -68.34,-26.65 -32.75,-71.26 129.69,87.47 41.69,-29.86 24.17,-61.25 61.45,78.74 27.76,-40.71 -47.41,-168.06 -76.57,-30.79 -140.02,-71.55 -13.53,-8.69 -143.36,159.83 -97.45,-29.85 17.99,-74.39 76.06,62.57 54.27,-18.38 -27.86,-103.55 13.04,-53.99 0,-95.73 -3.93,-12.6 -71.17,-63.21 -52.55,1.11 -1.47,-0.34 -75.49,15.39 -92.77,17.64 -24.5,87.11 -5.88,32.86 -70.2,-34.91 -10.9,-11.48 48.01,-51.89 -34.54,-68.71 -40.48,-8.25 -60.57,-103.02 -93.14,-67.97 -2.5,2.68 -4.86,4.73 -7.1,6.27 -6.44,-9.8 -15.28,-23.39 -23.25,-32.07 3.03,-10.91 3.04,-29.59 -2.1,-57.71 27.57,-59.75 85.94,44.06 -0.37,-86.72 -7.98,-12.09 -34.53,39.49 -88.46,-38.86 -32.22,-46.82 42.49,-46.32 50.7,-85.99 0.78,-3.78 74.52,-5.07 35.65,-99.3 -10.11,-24.54 25.18,-65.57 34.18,-8.64 39.13,-4.51 15.85,-115.85 25.17,-116.21 21.57,-0.82 -50.94,-85.07 8.63,-82.4 69.6,3.12 -92.02,-58.65 -43.18,-120.89 50.25,-64.01 -27.66,11.51 47.12,-48.61 86.88,-69.82 41.6,-168.45 114.11,-279.16 38.53,-58.84 -102.21,-19.61 38.49,-186.03 67.02,-79.27 29.6,5.87 46.01,-91.03 3.71,-21.87 141.51,-98.94 216.25,-98.94 93.26,0 84.29,21 192.47,16.41l23.49 23.49 -46.25 94.91 46.25 63.28 141.17 94.93 126.57 14.6 63.28 172.82 63.28 31.64 204.46 -126.57 -46.25 -158.2 236.1 158.2 77.89 94.92 0 63.29 46.25 63.27 31.63 94.93 77.89 -46.25 63.29 63.28 109.53 158.21 -14.61 109.53 63.28 63.29 14.61 77.89 126.58 31.63 94.91 63.27 -17.04 63.29 31.64 267.73 14.61 126.59 -46.25 126.57 -46.25 94.9 -77.89 46.25 -425.94 46.26 -77.89 31.63 14.61 77.89 172.8 250.7 158.21 94.92 46.25 221.5 0 172.81 141.17 77.89 -77.89 77.89 -14.6 109.54 -46.25 172.81 17.04 77.89 141.18 219.06 77.89 141.18 250.7 236.1 313.97 126.56 94.91 14.61 63.29 -63.28 109.56 0.02 141.18 77.89 31.64 94.92 14.6 189.85 31.64 77.89 0 236.1 -141.16 267.74 77.89 46.25 204.45 17.05 63.26 219.05 14.62 221.49 126.57 63.29 0 158.21 -14.61 46.25 -63.28 362.65 -94.91 94.92 14.6 267.75 -486.8 36.49 -14.62 -63.28 -77.89 -14.61 -172.81 -109.53 -126.57 109.53 -219.05 -31.64 -63.28 63.29 -109.54 250.69 -18.66 9.67c-14.11,-47.13 -31.72,-82.92 -53.5,-99.3 -144.96,-108.96 -120.02,10.87 -138.06,-135.86 -20.44,-166.2 -267.22,-286.02 -206.69,-346.56 12.66,-12.67 -64.25,-341.06 -136.26,-276.13 -44.5,40.13 -37.37,-40.92 -86.69,-50.97 -71.92,-14.66 76.15,-57.82 76.65,-58 42.99,-124.18 -134.11,-89.14 0.6,-127.03 -5.11,-23.86 -365.06,-215.98 -137.46,-410.17 19,-16.21 -20.92,-20.72 68.43,-107.16 7.02,-6.79 35.13,-189.11 -3.01,-230.58 -23.44,-25.48 96.19,-10.57 21.67,-69.63 -11.84,-9.38 42.13,-307.33 -8.23,-221.95 -0.27,0.46 47.36,5.85 -39.12,-110.57 -46,-61.93 -92.67,-62.52 -35.73,-86.09 -2.3,-10.76 -134.68,-94.24 -180.2,-51.97 -0.28,0.26 -90.68,-9.15 4.61,-38.73 -21.12,-183.05 -46.56,98.78 22.87,-69.03 -143.18,-248.2 -99.32,229.28 -172.18,-35.12 -2.85,-10.36 86.84,-11.9 -13.44,-75.45 -154.62,-98 -92.4,66.81 -232.38,-119.41 -13.1,-17.42 -152.38,-11.42 -195.46,-86.08 1.21,-2.91 219.26,88.64 133.45,4.61 -13.85,-13.56 -149.51,-32.39 -272.71,-166.16 -79.22,-86.01 42.01,70.57 -65.02,1.81 -68.32,-43.89 -22.41,219.06 -91.3,-1.81 -56.13,-179.9 38.53,-5.76 -136.86,-163.94 -1.94,-1.75 -86.08,-40.06 -86.08,30.5 0,211.87 78.45,6.88 90.7,147.5 0.95,10.87 118.02,278.96 140.48,314.25 179.79,282.45 147.03,107.74 204.89,156.93 22.87,19.45 3.76,-127.2 82.47,34.52 0.61,1.25 178.73,396.77 126.42,190.23 -19.06,-75.26 -122.27,-235.17 -155.72,-302.61 -33.64,-67.82 12.85,-33.4 68.03,77.26 6.89,13.83 133.48,157.87 149.69,138.06 17.38,-21.2 122.02,127.05 92.52,28.7 0.33,-0.38 90.67,81.13 86.69,-3.41 -0.76,-16.17 -53.42,-150.28 29.3,4.61 23.28,43.59 180.2,432.48 180.2,484.63 0,89.62 52.98,174.46 -68.43,283.95 -38.79,34.99 -34.3,-117.07 -57.39,-1.8 -0.61,3.05 -85.62,53.24 -112.97,13.44 -67.31,-97.9 -49.94,-16.59 -119.4,-47.96 -37.89,-17.11 -190.6,-261.96 -167.37,-129.43 0.1,0.6 108.98,146.95 21.67,84.28 -9.34,-6.7 30.79,99.59 125.22,113.58 45.75,6.79 -19.48,236.28 43.35,313.05 45.3,-129.4 8.23,-209.66 68.43,-164.95 87.65,-105.78 48.12,201.01 52.57,203.68 -2.88,-59.07 -26.48,-14.4 -9.83,97.73 24.23,163.03 -41.36,71.7 -62.61,79.07 -12.11,58.55 -18.87,-64.33 -28.7,69.03 -3.61,49.03 -130.61,6.03 -42.14,-43.35 1.21,-0.67 -11.98,-146.64 -0.59,-194.85 15.02,-63.7 -68.24,-278.35 -27.49,-67.83 0,-103.2 -66.18,-79.39 -2.41,60.2 6.63,14.51 -62.12,288.89 -47.36,-56.19 1.97,-46.01 -106.21,-274.77 -183.21,-287.37 -17.01,-2.78 -71.63,-172.56 -53.78,-233.58 4.27,-14.6 -24.9,-344.48 -36.32,-123.42 -7.5,145.12 -34.1,76.03 -21.07,-29.9 1.52,-12.3 -145.8,-354.68 -190.24,-351.18 0,-205.96 94.78,133.28 56.8,-175.59 -14.07,-114.39 22.33,239.53 -72.05,-50.97 -102.84,-316.59 -49.01,-37.25 13.45,114.18 7.54,18.29 13.1,259.25 -66.02,15.85 -48.69,-149.79 -150.9,-167.9 -25.89,61.41 1.12,2.05 44.14,119.98 100.74,189.64 3.35,-1.55 41.34,-118.28 76.66,81.87 -65.95,-35.51 -88.13,-93.14 7.62,46.36 94.46,137.62 151.98,464.58 4.61,152.71 -16.33,-34.56 -120.54,-136.05 -40.33,-109.97 2.4,0.78 -340.84,-478.92 -215.92,-186.22 1.86,4.37 163.81,236.14 83.08,134.65 -21.54,4.46 43.33,72.87 -76.06,-61.41 -40.48,-45.53 -213.27,-423.91 -175.58,-255.86 41.36,184.45 222.98,272.19 306.03,430.24 40.56,77.22 106.37,96.03 121.8,273.32 10.16,116.73 -45.42,-56.53 -127.02,-112.37 -51.3,14.42 92.49,87.69 106.55,183.82 -22.86,25.4 -157.06,-198.73 22.28,132.24 0.58,1.06 98.61,313.53 -72.64,65.01 -80.17,-116.34 -313.61,-181.12 -372.36,-285.97 12.58,-6.68 21.15,-19.91 21.15,-35.14 0,-19.14 -13.54,-35.12 -31.54,-38.9 2.97,-11.95 8.08,-24.42 15.72,-37.52 13.9,-23.83 -25.86,-58.37 36.93,-25.68 -2.04,7.48 -89.94,-149.69 15.85,-7.03 69.77,94.1 -26.8,-201.21 -151.71,-256.46 -38.94,-17.23 -49.8,-164.89 -46.75,-87.69 2,50.88 -84,-64.97 -62.62,-238.8 5.76,-46.77 -4.22,110.96 -75.45,-35.72 -2.85,-5.85 -6.85,-6.15 -11.35,-2.15 -3.2,-6.39 -7.08,-13.23 -11.66,-20.24 23.99,-60.74 4.62,-9.22 4.62,-47.02 0,-28.49 -42.39,-46.19 -33.52,-61.19 20.84,-35.19 -27.15,-55.32 -27.86,-56.44 -18.57,-29.67 -38.8,-36.01 -54.39,-36.15 1.79,-6.54 1.47,-10.15 -5.59,-10.15 -52.47,0 -32.43,-59.55 -59.98,-85.34 -15.2,6.85 -7.4,62.47 0.37,77.2 33.85,64.23 -7.24,30.92 -6.39,65.45 5.12,208.53 -40.45,-155.01 -40.45,6.57 0,38.31 -14.29,96.38 8.15,101.65 11.91,2.79 -7.79,100.6 -7.97,100.97 -18.98,40.9 19.17,63.76 43.58,73.01 -1.58,4.28 -2.44,8.91 -2.44,13.73 0,20.37 15.34,37.17 35.09,39.48 -43.15,46.61 -45.09,-1.91 -91.32,15.51 -3.65,1.37 -33.27,10.9 -34.8,12.59 -45.35,50.41 1.53,17.04 -46.29,7.3 -40.5,-8.25 -3.9,-40.18 -18.25,-83.95 -9.2,-28.06 7.43,-98.15 -2.49,-94.71 -9.9,28.57 -21.98,62.75 -19.35,91.18 4.11,44.23 -33.53,143.52 -12.96,162.17 31.96,28.97 -8.92,43.63 25.55,59.25 11.6,5.25 14.16,-104.16 10.28,-112.66 -16.89,-36.99 25.42,-9.3 28.05,-6.57 22.44,23.38 59.56,-47.52 91.55,-35.65 78.41,29.1 41.3,2.53 77.53,-14.29 1.65,-0.11 3.27,-0.34 4.85,-0.66 42.8,28.86 13.29,56.06 13.41,59.11 1.88,47.67 -109.97,-56.89 -70.26,47.21 23.08,60.5 -8.91,105.72 25.55,121.35 24.03,10.9 29.8,-6.87 46.66,12.96 46.41,54.55 28.08,-0.32 37.96,-35.35 5.55,-19.7 -18.9,-88.71 -27.31,-103.22 -21.83,-37.62 20.19,-81.96 -14.73,-101.34l-4.63 -2.64c14.86,-5.75 25.41,-20.18 25.41,-37.08 0,-10.25 -3.89,-19.6 -10.25,-26.65 8.36,-5.01 18.76,-0.35 19.65,-0.48 11.06,-1.7 -6.65,-116.33 -8.34,-121.73 -19.03,-60.73 33.92,-8.96 -13.14,-133.58 -7.27,-19.25 -4.25,-35.68 -0.71,-47.84 14.2,-1.89 29.49,-1.81 36.18,11.65 13.74,27.71 46.8,25.29 41.18,52.86 -11.49,56.42 37.12,54.76 36.01,82.85 -1.97,50.24 -26.79,20.6 4.44,73.4 -22.3,41.44 -45.9,158.13 -4.96,231.43 28.8,51.55 30.55,307.16 57.39,88.9 25.17,-204.64 91.5,226.96 209.5,252.25 19.61,-47.39 49.87,10.1 24.68,77.86 -2.9,7.79 -4.41,17.22 -5.24,27.26l-1.23 -0.03c-21.96,0 -39.76,17.79 -39.76,39.75 0,20 14.77,36.55 34,39.35 -4.16,7.2 -11.39,8.87 -24.09,1.43 22.29,126.35 135,289.84 245.22,348.76 10.41,5.56 189.14,249.28 88.3,63.82 -64.57,-118.74 191.64,107.23 87.29,105.96 -0.62,-0.01 -121.05,-141.49 -76.06,-36.32 1.14,2.65 101.09,100.33 28.1,91.9 -25.03,80.62 87.15,214.29 -36.32,97.13 -68.61,-65.1 44.06,60.05 15.25,105.35 -31.25,49.15 17.88,58.43 -59.19,-18.67 -25.59,-25.58 -244.14,-47.56 -153.92,-66.22 11.06,-23.98 -166.5,-267.24 -11.64,1.21 -46.41,80.45 -6.76,64.78 118.19,174.99 79.06,69.72 94.44,276.27 162.15,248.23 47.35,-19.61 -0.03,53.87 62.01,110.57 86.99,-27.76 -42.43,-2.73 141.68,71.45 94.65,38.13 -52.25,110.64 111.77,49.76 0.54,-0.2 135.2,-1.81 99.54,60.81 -43.95,77.18 58.42,-32.74 143.87,59.19 37.22,40.04 106.78,-78.16 79.07,79.47 -11.27,64.11 150.31,23.04 90.1,161.54 -9.31,21.42 -20.35,178 70.84,178 129.23,0 24.42,114.66 22.87,138.67 -3.38,52.74 -24.04,10.85 -25.9,33.46l-59.25 13.41 -63.29 -63.3 31.65 -126.57 -109.53 0 -425.94 -46.24 -77.89 -77.89 -94.92 77.89 -94.92 17.04 -77.89 94.91 -14.6 126.58 -63.27 31.62 -46.25 -109.52 -126.56 -77.89 -662.06 46.25 -77.89 109.54 0 63.26 126.56 126.58 46.25 0 63.28 -94.93 109.54 0 63.28 94.93 -63.28 158.2 -46.25 109.54 -189.84 -63.28 -77.89 -63.28 -77.89 31.64 14.6 109.54 -158.21 63.26 -109.54 126.58 0 109.53 -63.27 94.92 -172.82 31.65 -109.53 126.57 -94.92 31.63 -294.03 -113.69c74.01,-21.86 83.58,-46.36 149.25,-211.14 96.6,-242.39 79.45,-104.74 62.61,-345.96 -29.05,-415.85 -94.96,-177.47 -240,-426.03 -22.89,-39.23 -171.41,-43.62 -181.41,-104.75 -18.43,-112.71 -117.54,-85.38 -118.2,-85.49 -286.16,-46.81 -145.19,-239.26 -105.35,-28.1 17.91,94.91 -176.83,-46.67 -183.82,-48.56 -149.65,-40.59 33.66,-2.32 -90.7,-105.35 24.35,70.34 -28.66,86.27 -12.85,119.4 102.66,215.1 -48.23,-19.25 -49.77,-21.07 -119.58,-140.85 -10.84,-29.03 -29.9,-88.9 -47.58,-149.5 49.44,6.21 104.75,18.05 30.02,-72.51 88.68,7.72 101.34,12.85 168.79,68.26 5.72,-8.47 -45.15,-87.7 -80.46,-125.28 -21.45,-15.7 -63.21,-128.23 -49.47,-133.29 -37.17,-3.61 -46.76,7.03 -57.79,64.08 -45.29,-119.29 -47.36,-118.2 -96.76,51.12 -12.28,-43.57 -79.66,-43.35 -121.69,0.41 3.25,41.6 -53.78,-15.85 -97.91,-98.62 58.94,-37.73 21.07,-70.83 -70.97,-62.06 -51.45,-70.64 -59.81,-32.71 -28.67,130.16 -34.55,-18.53 -46.75,-25.68 -47.93,135.73 -41.88,26.52 -41.54,25.68 74.58,-180.83 -63.49,138.86 -24.68,-15.25 50.97,-202.42 -34.94,5.06 -35.72,5.22 -72.93,-92.82 -16.54,-24 -33.92,0.6 -82.71,-63.63 -33.71,29.29 -56.19,11.84 -123.78,-96.03 -7.96,-178.99 -83.68,-199.06 -171.19,-45.39 -95.71,-67.51 -153.31,-104.16 -61.63,-39.2 27.86,67.26 28.09,68.43 19.43,95.34 102.87,93.27 104.75,141.07 9.78,247.99 -69.63,-34.29 -76.65,-35.72 -110.7,-22.55 -0.33,46.43 0,56.79 6.18,196.64 -111.14,-39.37 -58,-50.37 40.36,-195.05 92.95,116.42 0,-152.11 -117.38,-40.63 -18.29,-35.27 -83.08,-72.64 -63.74,36.76 58.63,187.27 35.72,200.27 -59.47,33.75 55.05,114.72 1.21,156.13 -80,-22.22 -92.95,-89.33 -106.56,-102.94 -141.8,-141.81 39.79,110.54 50.37,126.42 87.35,131.11 -150.29,-96.84 -156.93,-98.94 -67.14,43.8 32.83,86.52 33.92,87.3 150.16,106.96 -33.16,26.83 -34.51,74.85 -2.85,101.04 -2.78,-20.63 -70.84,33.3 -105.09,83.29 26.27,21.61 28.1,25.29 124.67,251.27 -92.64,-46.23 -89.5,33.31 3.49,88.77 -51.64,50.37 -76.66,50.37 17.17,97.27 -49.81,-13.06 -176.19,-64.41 10.29,60.08 220.82,125.82 115.38,125.82 52.89,95.23 -45.81,2.76 -58.59,-3.41 111.31,185.52 -121.32,-4.8 -69.03,65.42 101.01,135.66 149.9,39.96 145.68,65.02 -27.41,162.97 10.68,11.37 -40.33,114.18 -35.43,71.38 -65,19.23 -56.79,37.93 46.08,104.97 -118,38.28 -109.57,58 19.29,45.13 -74.85,59.33 -62.61,72.64 79.86,86.83 -83.83,-17.22 -37.33,53.78 12.72,19.41 -44.84,42.86 -18.26,86.69 65.98,108.8 12.14,58.69 0.17,70.7l-193.31 -74.74 -289.65 0 -94.93 -141.17 -77.89 -31.63 -46.24 -63.29 -77.89 -31.64 31.64 -63.28 141.17 -158.2 77.89 -158.21 94.91 -46.25 141.18 -172.82 63.27 -141.17 126.57 -126.56 362.67 -550.09 141.18 -158.21 126.56 -189.85 14.6 -63.29 158.23 -141.16 109.52 -94.93 77.89 -126.56 236.11 -282.34 77.89 -221.5 63.28 -126.57 77.89 -299.38 126.57 -250.7 -63.28 -126.56 -126.56 -172.82 -126.58 -141.16 -31.65 -189.86 -46.25 -63.28 -189.85 -126.56 -155.78 -187.41 -331.02 -204.47 -94.92 -141.16 -141.17 -109.54 -236.1 -301.84 -14.6 -63.27 204.45 -109.54 63.27 -77.89 63.28 -158.21 189.85 -204.45 63.28 -141.18 0 -63.27 -46.25 -189.86 31.64 -126.56 -109.53 -63.29 -126.57 -158.21 -219.06 -94.92 -63.27 -77.89 31.65 -172.82 -77.89 -77.89 -17.04 -172.81 158.2 -77.89 46.25 -63.28 0.02 -94.92 -63.28 -77.89 0 -109.53 -46.24 -46.25 -189.84 0 -94.93 -17.04 -77.89 -109.54 -63.26 -158.2 -46.25 -189.85 17.04 -94.92 63.29 -109.54 158.21 -31.64 31.64 -63.28 -46.25 -63.28 14.61 -141.17 -63.29 -17.04 -126.58 0 -46.25 -46.25 31.64 -77.89 94.92 -141.18 17.04 -94.91 -17.04 -204.47 31.64 -126.57 94.92 -141.16 -141.16 -141.18 63.26 -46.25 236.1 -77.89 94.93 63.28 14.6 -141.17 -31.64 -267.74 -126.57 -362.68 -46.25 -313.97 -109.54 -189.84 -141.17 -250.7 -46.25 -141.17 -46.25 -158.23 -31.65 -204.44 -109.53 -189.86 -46.25 -141.16 31.67 -0.01 1640.52 -146.05 46.25 14.6 425.94 63.29 31.63 46.25 14.61 141.18 46.25 94.91 126.57 77.89 31.64 94.91 17.04 219.06 63.28 46.25 425.95 0.01 31.63 -267.74 172.81 -46.25 46.25 -236.11 282.35 -12.16z"/>
  <g id="_1490515920">
   <path class="fil1 str0" d="M2676.47 4524.91c-84.93,0 -153.77,-68.84 -153.77,-153.78 0,-84.93 68.84,-153.77 153.77,-153.77 84.94,0 153.78,68.84 153.78,153.77 0,84.94 -68.84,153.78 -153.78,153.78z"/>
   <polygon class="fil2 str0" points="2819.45,4553.97 2565.46,4391.56 2642.38,4347.05 2533.49,4188.31 2787.47,4350.72 2710.56,4395.22 "/>
  </g>
  <g id="_1490513232">
   <path class="fil3 str1" d="M3640.57 4050.78c-54.44,0 -98.55,-44.12 -98.55,-98.54 0,-54.44 44.12,-98.55 98.55,-98.55 54.43,0 98.54,44.12 98.54,98.55 0,54.43 -44.12,98.54 -98.54,98.54z"/>
   <polygon class="fil3 str1" points="3732.2,4069.4 3569.43,3965.31 3618.73,3936.79 3548.94,3835.06 3711.71,3939.15 3662.42,3967.67 "/>
  </g>
  <g id="_1490477424">
   <path class="fil1 str0" d="M4310.97 4114.91c-84.93,0 -153.77,-68.84 -153.77,-153.78 0,-84.93 68.84,-153.77 153.77,-153.77 84.94,0 153.78,68.84 153.78,153.77 0,84.94 -68.84,153.78 -153.78,153.78z"/>
   <polygon class="fil4 str0" points="4453.96,4143.97 4199.97,3981.56 4276.88,3937.05 4168,3778.31 4421.98,3940.72 4345.07,3985.22 "/>
  </g>
  <g id="_1490510384">
   <path class="fil1 str0" d="M4848.23 4350.6c-84.93,0 -153.77,-68.84 -153.77,-153.78 0,-84.93 68.84,-153.77 153.77,-153.77 84.94,0 153.78,68.84 153.78,153.77 0,84.94 -68.84,153.78 -153.78,153.78z"/>
   <polygon class="fil4 str0" points="4991.22,4379.65 4737.23,4217.24 4814.14,4172.74 4705.26,4013.99 4959.24,4176.4 4882.33,4220.9 "/>
  </g>
  <g id="_1490506672">
   <path class="fil1 str0" d="M5244.94 4270.57c-84.93,0 -153.77,-68.84 -153.77,-153.78 0,-84.93 68.84,-153.77 153.77,-153.77 84.94,0 153.78,68.84 153.78,153.77 0,84.94 -68.84,153.78 -153.78,153.78z"/>
   <polygon class="fil4 str0" points="5387.92,4299.63 5133.94,4137.22 5210.85,4092.71 5101.96,3933.97 5355.95,4096.38 5279.04,4140.88 "/>
  </g>
  <g id="_1490505424">
   <path class="fil1 str0" d="M5417.88 5285.64c-84.93,0 -153.77,-68.84 -153.77,-153.78 0,-84.93 68.84,-153.77 153.77,-153.77 84.94,0 153.78,68.84 153.78,153.77 0,84.94 -68.84,153.78 -153.78,153.78z"/>
   <polygon class="fil4 str0" points="5560.87,5314.69 5306.88,5152.28 5383.8,5107.78 5274.91,4949.03 5528.89,5111.44 5451.98,5155.95 "/>
  </g>
  <g id="_1490502832">
   <path class="fil1 str0" d="M5184.28 5475.78c-84.93,0 -153.77,-68.84 -153.77,-153.78 0,-84.93 68.84,-153.77 153.77,-153.77 84.94,0 153.78,68.84 153.78,153.77 0,84.94 -68.84,153.78 -153.78,153.78z"/>
   <polygon class="fil4 str0" points="5327.26,5504.83 5073.28,5342.42 5150.19,5297.92 5041.3,5139.17 5295.29,5301.58 5218.38,5346.08 "/>
  </g>
  <g id="_1490457104">
   <path class="fil1 str0" d="M5046.71 5733.77c-84.93,0 -153.77,-68.84 -153.77,-153.78 0,-84.93 68.84,-153.77 153.77,-153.77 84.94,0 153.78,68.84 153.78,153.77 0,84.94 -68.84,153.78 -153.78,153.78z"/>
   <polygon class="fil4 str0" points="5189.69,5762.83 4935.71,5600.42 5012.62,5555.91 4903.73,5397.17 5157.72,5559.58 5080.8,5604.08 "/>
  </g>
  <g id="_1490461648">
   <path class="fil1 str0" d="M4951.22 6023.62c-84.93,0 -153.77,-68.84 -153.77,-153.78 0,-84.93 68.84,-153.77 153.77,-153.77 84.94,0 153.78,68.84 153.78,153.77 0,84.94 -68.84,153.78 -153.78,153.78z"/>
   <polygon class="fil4 str0" points="5094.2,6052.67 4840.22,5890.26 4917.13,5845.76 4808.24,5687.01 5062.23,5849.42 4985.31,5893.92 "/>
  </g>
  <g id="_1490466992">
   <path class="fil5 str1" d="M4807.67 6641.43c-84.93,0 -153.77,-68.84 -153.77,-153.78 0,-84.93 68.84,-153.77 153.77,-153.77 84.94,0 153.78,68.84 153.78,153.77 0,84.94 -68.84,153.78 -153.78,153.78z"/>
   <polygon class="fil5 str1" points="4950.66,6670.49 4696.67,6508.08 4773.58,6463.57 4664.69,6304.83 4918.68,6467.24 4841.77,6511.74 "/>
  </g>
  <g id="_1490482000">
   <path class="fil1 str0" d="M3411.01 10826.11c-59.45,0 -107.65,-48.19 -107.65,-107.65 0,-59.45 48.19,-107.64 107.65,-107.64 59.45,0 107.64,48.19 107.64,107.64 0,59.45 -48.19,107.65 -107.64,107.65z"/>
   <polygon class="fil2 str0" points="3511.09,10846.45 3333.3,10732.76 3387.15,10701.61 3310.92,10590.49 3488.71,10704.17 3434.86,10735.33 "/>
  </g>
  <path class="fil6" d="M4890.49 11321.5c-84.93,0 -153.77,-68.84 -153.77,-153.78 0,-84.93 68.84,-153.77 153.77,-153.77 84.94,0 153.78,68.84 153.78,153.77 0,84.94 -68.84,153.78 -153.78,153.78z"/>
  <polygon class="fil7" points="5033.47,11350.55 4779.49,11188.14 4856.4,11143.64 4747.51,10984.89 5001.5,11147.3 4924.58,11191.81 "/>
  <g id="_1490464432">
   <path class="fil1 str0" d="M1718.89 11103.89c-59.45,0 -107.65,-48.19 -107.65,-107.65 0,-59.45 48.19,-107.64 107.65,-107.64 59.45,0 107.64,48.19 107.64,107.64 0,59.45 -48.19,107.65 -107.64,107.65z"/>
   <polygon class="fil2 str0" points="1818.97,11124.23 1641.19,11010.54 1695.03,10979.39 1618.81,10868.27 1796.59,10981.95 1742.75,11013.11 "/>
  </g>
  <g id="_1490456656">
   <path class="fil1 str0" d="M1528.05 11244.45c-59.45,0 -107.65,-48.19 -107.65,-107.65 0,-59.45 48.19,-107.64 107.65,-107.64 59.45,0 107.64,48.19 107.64,107.64 0,59.45 -48.19,107.65 -107.64,107.65z"/>
   <polygon class="fil2 str0" points="1628.13,11264.79 1450.35,11151.1 1504.19,11119.95 1427.96,11008.83 1605.75,11122.51 1551.91,11153.67 "/>
  </g>
  <g id="_1490459920">
   <path class="fil1 str0" d="M1131.06 11376.03c-59.45,0 -107.65,-48.19 -107.65,-107.65 0,-59.45 48.19,-107.64 107.65,-107.64 59.45,0 107.64,48.19 107.64,107.64 0,59.45 -48.19,107.65 -107.64,107.65z"/>
   <polygon class="fil2 str0" points="1231.14,11396.37 1053.36,11282.68 1107.2,11251.53 1030.97,11140.41 1208.76,11254.09 1154.92,11285.25 "/>
  </g>
  <g id="_1490472912">
   <path class="fil1 str0" d="M2645.27 12140.33c-59.45,0 -107.65,-48.19 -107.65,-107.65 0,-59.45 48.19,-107.64 107.65,-107.64 59.45,0 107.64,48.19 107.64,107.64 0,59.45 -48.19,107.65 -107.64,107.65z"/>
   <polygon class="fil2 str0" points="2745.35,12160.66 2567.57,12046.97 2621.41,12015.82 2545.19,11904.7 2722.97,12018.38 2669.13,12049.54 "/>
  </g>
  <g id="_1490477776">
   <path class="fil1 str0" d="M2622.68 11899.09c-59.45,0 -107.65,-48.19 -107.65,-107.65 0,-59.45 48.19,-107.64 107.65,-107.64 59.45,0 107.64,48.19 107.64,107.64 0,59.45 -48.19,107.65 -107.64,107.65z"/>
   <polygon class="fil2 str0" points="2722.75,11919.43 2544.97,11805.74 2598.81,11774.59 2522.59,11663.47 2700.37,11777.15 2646.53,11808.31 "/>
  </g>
  <g id="_1490476624">
   <path class="fil1 str0" d="M4414.27 9798.45c-84.93,0 -153.77,-68.84 -153.77,-153.78 0,-84.93 68.84,-153.77 153.77,-153.77 84.94,0 153.78,68.84 153.78,153.77 0,84.94 -68.84,153.78 -153.78,153.78z"/>
   <polygon class="fil4 str0" points="4557.26,9827.5 4303.27,9665.09 4380.19,9620.59 4271.3,9461.84 4525.28,9624.25 4448.37,9668.76 "/>
  </g>
  <g id="_1490471376">
   <path class="fil1 str0" d="M4913.99 10478.4c-84.93,0 -153.77,-68.84 -153.77,-153.78 0,-84.93 68.84,-153.77 153.77,-153.77 84.94,0 153.78,68.84 153.78,153.77 0,84.94 -68.84,153.78 -153.78,153.78z"/>
   <polygon class="fil4 str0" points="5056.97,10507.46 4802.99,10345.05 4879.9,10300.54 4771.01,10141.8 5025,10304.21 4948.09,10348.71 "/>
  </g>
 </g>
</svg>
